<svg xmlns="http://www.w3.org/2000/svg" viewBox="0 0 512 512" role="img" aria-label="LogiSaúde">
  <rect width="512" height="512" rx="112" fill="#0d9488"/>
  <path d="M112 278h196c35 0 64 29 64 64v20h32c18 0 32 14 32 32s-14 32-32 32h-24a56 56 0 0 1-108 0H184a56 56 0 0 1-108 0H52c-18 0-32-14-32-32s14-32 32-32h28V174c0-35 29-64 64-64h100c18 0 32 14 32 32s-14 32-32 32H144v56h164c70 0 128 58 128 128v4h16c18 0 32 14 32 32s-14 32-32 32h-16" fill="none" stroke="#fff" stroke-width="32" stroke-linecap="round" stroke-linejoin="round"/>
  <path d="M316 110v46h46v56h-46v46h-56v-46h-46v-56h46v-46z" fill="#fff"/>
</svg>
